# xmcd CD database file
#
# Track frame offsets:
#	150
#	16338
#	38626
#	58787
#	75518
#	93757
#	111636
#	133496
#	151066
#	163565
#	181577
#	197661
#
# Disc length: 2841 seconds
#
# Revision: 0
# Processed by: cddbd v1.5.2PL0 Copyright (c) Steve Scherf et al.
# Submitted via: CDex 1.51
#
DISCID=900b170c
DTITLE=Bill Deraime - APRES DEMAIN
DYEAR=2013
DGENRE=Blues
TTITLE0=Il Braille
TTITLE1=La Pieuvre
TTITLE2=Mon Obsession
TTITLE3=Rien d'Nouveau
TTITLE4=Je Reve
TTITLE5=Esclaves ou Exclus
TTITLE6=Y'en avait marre
TTITLE7=Apres Demain
TTITLE8=Les Cactus
TTITLE9=Le Vieil Homme
TTITLE10=Death Don't Have No Mercy
TTITLE11=Bobo Boogie
EXTD=YEAR: 2013
EXTT0=
EXTT1=
EXTT2=
EXTT3=
EXTT4=
EXTT5=
EXTT6=
EXTT7=
EXTT8=
EXTT9=
EXTT10=
EXTT11=
PLAYORDER=
